<svg id="Layer_1" data-name="Layer 1" xmlns="http://www.w3.org/2000/svg" xmlns:xlink="http://www.w3.org/1999/xlink" viewBox="0 0 1502 1502"><defs><style>.cls-1{fill:url(#linear-gradient);}.cls-2{fill:#fff;}.cls-3{fill:none;stroke:#fff;stroke-linecap:round;stroke-linejoin:round;stroke-width:4px;}</style><linearGradient id="linear-gradient" x1="219.96" y1="1282.04" x2="1282.04" y2="219.96" gradientUnits="userSpaceOnUse"><stop offset="0" stop-color="#11998e"/><stop offset="1" stop-color="#62bc5a"/></linearGradient></defs><title>Osmany_icon_1</title><circle class="cls-1" cx="751" cy="751" r="751"/><path class="cls-2" d="M1052.5,1953.34l222.29-906.68s69.35,41.25,125.2,46.36,134.32,44.89,134.32,44.89l-25.55,815.43H1374l0-.34H1208Z" transform="translate(-749 -749)"/><polygon class="cls-2" points="1037.53 481.62 1198.5 1204.34 797.36 1198.5 797.36 995.92 837.51 975.85 1144.84 1007.24 1026.58 487.1 1037.53 481.62"/><polygon class="cls-2" points="771.8 448.41 969.27 455.71 969.27 481.62 771.8 476.88 771.8 448.41"/><polygon class="cls-2" points="763.77 537.11 932.77 595.87 1005.05 522.87 1001.4 508.63 930.58 577.99 928.39 558.64 763.77 497.68 763.77 537.11"/><polygon class="cls-2" points="776.19 610.11 945.18 668.87 1017.46 595.87 1013.81 581.64 942.99 650.99 940.8 631.64 776.19 570.69 776.19 610.11"/><polygon class="cls-2" points="1005.05 697.34 756.84 695.88 756.84 661.57 763.77 661.57 830.57 661.57 830.57 687.12 997.75 687.12 997.75 668.87 1011.98 668.87 1011.98 687.12 1011.98 697.34 1005.05 697.34"/><polygon class="cls-2" points="754.65 753.19 830.57 753.19 830.57 781.3 1011.98 783.49 1011.98 760.13 1023.66 760.13 1023.66 795.9 754.65 795.9 754.65 753.19"/><polygon class="cls-2" points="761.22 863.06 832.4 865.25 832.4 895.54 1026.58 897.37 1026.58 868.53 1043.01 868.9 1043.01 910.51 761.22 910.51 761.22 863.06"/><rect class="cls-2" x="837.14" y="664.13" width="155.86" height="19.71"/><rect class="cls-2" x="837.14" y="754.65" width="167.9" height="24.82"/><rect class="cls-2" x="838.97" y="867.07" width="181.77" height="24.82"/><polygon class="cls-2" points="1090.82 1013.81 988.25 437.82 1005.05 437.82 1126.96 1021.84 1090.82 1013.81"/><polygon class="cls-2" points="967.09 471.04 988.98 441.87 992.33 460.68 969.27 487.1 967.09 471.04"/><polyline class="cls-3" points="1012 697 945 742 771.8 697.34"/><polyline class="cls-3" points="1023.5 795.5 943.5 852.5 763.5 800.5"/><polyline class="cls-3" points="1043.5 910.5 944.5 969.5 750.5 910.5"/><line class="cls-3" x1="975" y1="481" x2="1071" y2="1032"/><line class="cls-3" x1="797" y1="996" x2="722" y2="996"/><line class="cls-3" x1="759" y1="1202" x2="857" y2="1189"/></svg>